<svg width="101" height="40" viewBox="0 0 101 40" fill="none" xmlns="http://www.w3.org/2000/svg">
<path d="M20.2355 1.44978H10.384V24.0786C10.384 26.8996 9.75517 28.786 8.49753 29.7642C7.46696 30.5066 5.53683 30.8821 2.6984 30.8821H1.49316V39.2838H6.30539C8.37526 39.2838 10.2181 39.0393 11.8338 38.559C17.4408 36.8734 20.2443 32.2358 20.2443 24.6725V1.44978H20.2355Z" fill="#1A73E8"/>
<path d="M62.5325 1.48473L53.1875 38.5153L53.1788 38.5502H43.6067L43.5892 38.5153L34.8818 16.1048L29.205 38.5153H19.4932L21.4495 30.7948L21.7814 29.4847L28.8905 1.4498H38.9517L38.9604 1.48473L47.2137 24.3756L52.9691 1.48473H62.5325Z" fill="#1A73E8"/>
<path d="M88.0346 26.8996C86.1219 29.3624 83.5717 30.5939 80.3927 30.5939C77.4058 30.5939 74.9953 29.5895 73.1699 27.5808C71.3359 25.572 70.4189 23.048 70.4189 20C70.4189 16.9869 71.3359 14.4716 73.1699 12.4454C75.004 10.4192 77.4145 9.40611 80.3927 9.40611C83.4058 9.40611 85.956 10.559 88.0346 12.8559L94.4101 6.44541C91.956 3.99127 89.1088 2.32314 85.8686 1.44105C84.0782 0.960698 82.1656 0.716156 80.1306 0.716156C78.0695 0.716156 76.1394 0.960698 74.3403 1.44105C71.2136 2.27947 68.4713 3.85153 66.1219 6.14847C62.4101 9.77292 60.5586 14.393 60.5586 19.9913C60.5586 25.5633 62.4189 30.1659 66.1481 33.8079C68.5149 36.1223 71.2573 37.7031 74.3752 38.5415C76.1656 39.0306 78.087 39.2664 80.1306 39.2664C82.1656 39.2664 84.0782 39.0218 85.8599 38.5415C89.1699 37.6419 92.0695 35.9127 94.5499 33.345L88.0346 26.8996Z" fill="#1A73E8"/>
</svg>
